<svg id="Layer_1" data-name="Layer 1" xmlns="http://www.w3.org/2000/svg" viewBox="0 0 1114.94 1005.45"><defs><style>.cls-1{fill:#e0e0e0;}.cls-2{fill:#d4d4d4;}.cls-3{fill:#f0f0f0;}.cls-10,.cls-14,.cls-15,.cls-18,.cls-4,.cls-9{fill:none;stroke-linecap:round;}.cls-14,.cls-4{stroke:#75bdd2;}.cls-4{stroke-linejoin:round;stroke-width:14.32px;}.cls-5{fill:#72d9b4;}.cls-6{fill:#64bf9e;}.cls-7{fill:#d8b42e;}.cls-8{fill:#ffdbef;}.cls-15,.cls-9{stroke:#64bf9e;}.cls-10,.cls-14,.cls-15,.cls-18,.cls-9{stroke-miterlimit:10;}.cls-10,.cls-9{stroke-width:2.86px;}.cls-10,.cls-18{stroke:#d33939;}.cls-11{fill:#f6d248;}.cls-12{fill:#80ddbc;}.cls-13{fill:#75bdd2;}.cls-14,.cls-15,.cls-18{stroke-width:1.91px;}.cls-16{fill:#d33939;}.cls-17{fill:#f5cd34;}.cls-19{fill:#fff;}.cls-20{fill:#85d7ef;}</style></defs><path class="cls-1" d="M1446.52,728.82c11.19-89.49,16.78-195.76-53.13-260.07-81.1-78.3-179-131.44-218.13-237.7-18.27-50.26-20-102.18-18.6-154.4-83.2-16.94-153-4.83-249.93,75.4-47.34,39.2-90,90.68-124.58,149-1.67,39.75-.19,79.14,10,117.37,16.78,55.93,89.49,67.11,142.62,103.47,81.1,53.13,33.56,165,25.17,246.09-5.59,47.54-19.58,103.46,22.37,137,83.89,69.91,193,36.36,293.63,53.13,21.9,4.7,34.17,19.9,42.21,38.74,19.5-3,38.72-6.59,57.46-10.84a716.24,716.24,0,0,0,80.78-23.18q5.49-2,10.87-4,10.77-4,21.15-8.4c6.55-2.75,12.92-5.63,19.2-8.57C1432.69,899.16,1433.72,808.15,1446.52,728.82Z" transform="translate(-667.06 -70)"/><path class="cls-2" d="M1675.83,491.12c-8.39-50.34-39.15-92.29-75.5-125.84-66.34-64.39-114.94-141-127.83-225.18-60.74-3.45-123.27-3.28-178.72-22.11-52.14-17.7-96.25-33-137.12-41.34-1.35,52.22.33,104.14,18.6,154.4,39.16,106.26,137,159.4,218.13,237.7,69.91,64.31,64.32,170.58,53.13,260.07-12.8,79.33-13.83,170.34,61.09,213.08,13.62-6.36,26.64-13.12,38.87-20.33,5-3,9.91-6,14.77-9.09l3.77-2.43c4.36-2.84,8.67-5.72,12.91-8.68l1.43-1c4.68-3.28,9.26-6.65,13.78-10.07,1.07-.8,2.12-1.62,3.18-2.43q5.92-4.56,11.67-9.26l1.85-1.49q6.59-5.46,12.92-11.11l2.33-2.11q5.63-5.05,11.05-10.27l1.72-1.64q6.21-6,12.16-12.23l1.27-1.35q5.51-5.77,10.77-11.71l1.38-1.55q11.63-13.18,22.16-27.1l1-1.26c.82-1.08,1.58-2.2,2.39-3.29C1690.63,693.65,1692,593.68,1675.83,491.12Z" transform="translate(-667.06 -70)"/><path class="cls-3" d="M1683,224.4c-53.51-68.91-130.43-79.75-210.46-84.3,12.89,84.14,61.49,160.79,127.83,225.18,36.35,33.55,67.11,75.5,75.5,125.84,16.19,102.56,14.8,202.53,13.12,302.4,6.18-8.37,12.12-16.89,17.72-25.59l.54-.85q9.58-15,18-30.56l.21-.41q8.49-15.76,15.73-32.08h0C1808.69,551.91,1794.62,368.19,1683,224.4Z" transform="translate(-667.06 -70)"/><path class="cls-3" d="M1275.94,958.12C1175.26,941.35,1066.2,974.9,982.31,905c-41.95-33.56-28-89.48-22.37-137,8.39-81.1,55.93-193-25.17-246.09-53.13-36.36-125.84-47.54-142.62-103.47-10.19-38.23-11.67-77.62-10-117.37-86.51,145.88-122.39,334.58-54.09,481.08.15.33.32.65.47,1q2.6,5.5,5.37,10.94c.42.81.85,1.61,1.28,2.41,1.63,3.12,3.3,6.23,5,9.3.6,1.07,1.22,2.13,1.84,3.2q2.41,4.18,5,8.32c.75,1.22,1.52,2.43,2.29,3.65q2.45,3.84,5,7.64c.89,1.31,1.78,2.62,2.69,3.93,1.66,2.4,3.37,4.78,5.1,7.15q1.5,2,3,4.08c1.72,2.28,3.5,4.53,5.29,6.77,1.1,1.38,2.19,2.76,3.31,4.13,1.81,2.2,3.68,4.37,5.56,6.54,1.17,1.35,2.33,2.71,3.53,4.05,2,2.18,4,4.33,6,6.48,1.2,1.27,2.36,2.55,3.58,3.81,2.24,2.3,4.55,4.56,6.87,6.82,1.08,1,2.12,2.12,3.22,3.16q5.17,4.9,10.6,9.67a334.14,334.14,0,0,0,34.5,26.34,392.07,392.07,0,0,0,38.6,22.63,473.82,473.82,0,0,0,53.16,23.2A577.25,577.25,0,0,0,997,985c4,1,8,2,12,2.91q12,2.79,24.29,5.16a750.77,750.77,0,0,0,75.23,10.56q12.76,1.15,25.63,1.91c25.71,1.51,51.66,1.84,77.54,1,21.57-.66,43.08-2.11,64.36-4.32q21.29-2.2,42.18-5.43C1310.11,978,1297.84,962.82,1275.94,958.12Z" transform="translate(-667.06 -70)"/><line class="cls-4" x1="572.04" y1="500.78" x2="870.52" y2="169.87"/><polyline class="cls-4" points="898.61 712.99 572.04 500.78 572.04 832.42"/><polyline class="cls-4" points="250.68 260.71 572.04 500.78 215.28 613.33"/><circle class="cls-5" cx="572.04" cy="500.78" r="212.21"/><path class="cls-6" d="M1337.37,685.37c-60.4,13.18-142.73,51.33-191.93,75.85A212.26,212.26,0,0,0,1426.71,670C1409.49,671.64,1381.49,675.74,1337.37,685.37Z" transform="translate(-667.06 -70)"/><path class="cls-7" d="M1450,547.5c-11.56-105.86-100.94-188.3-209.73-188.9a172.35,172.35,0,0,0-34.53,21.52c-8.4,6.77-19.39,18.34-22,28.82-22.62,8.57-37.88,33.4-35.34,57.46s22.69,45.12,46.6,48.77L1341,609c7.2,12.38,2.46,29.58,9.66,42,15.88-3.34,49-31,44.93-46.65C1419.07,589.55,1439.48,574.5,1450,547.5Z" transform="translate(-667.06 -70)"/><path class="cls-8" d="M1407.66,699.64c-15-2.24-31.93-1.63-40.66,1.56-9.89-27.87-16.53-62.29-20-89.82,3.63-2.58,6.52-6.41,9-10.21a124.94,124.94,0,0,0,13.81-28.77c2.08-6.32,3.54-13,2.17-19.52a23.14,23.14,0,0,0-42-7.92s-4.33,28.38-12.41,26.5-24.72-69.53-24.72-69.53c-37.82-11.72-71.46-37-92.47-70.67l.62-3.63a77.08,77.08,0,0,0-16.15,63.55l.45,3.27c.08,27-13.76,53.73-36.16,68.92a20.36,20.36,0,0,0-7.36,8.71c-5.36,12.44,6,19.83,15.58,24.6a180.54,180.54,0,0,0,25.54,79.55,16.14,16.14,0,0,0,14,7.81c12.7-.14,25.68.38,38.21-.18,2.17,16.8,4.81,33.34,7.23,50l-15.13,13a25,25,0,0,0-3.39,35.56c5,.36,10.11.6,15.25.6A211.8,211.8,0,0,0,1407.66,699.64Z" transform="translate(-667.06 -70)"/><path class="cls-9" d="M1213.05,514.93a52,52,0,0,1,39.3,6.44" transform="translate(-667.06 -70)"/><path class="cls-9" d="M1224.56,534.57v19" transform="translate(-667.06 -70)"/><path class="cls-10" d="M1178.12,630.5a68.43,68.43,0,0,0,36-3.86" transform="translate(-667.06 -70)"/><path class="cls-11" d="M1239.1,1075.45A105.43,105.43,0,1,1,1344.52,970a105.43,105.43,0,0,1-105.42,105.43" transform="translate(-667.06 -70)"/><circle class="cls-6" cx="856.27" cy="169.87" r="148.93"/><path class="cls-12" d="M1403.91,328.88a149,149,0,1,0,44.71-217.83c-16,30.73-21.81,66.79-15.53,100.88,2.86,15.49,8.09,30.94,6.46,46.6C1436.81,284.88,1415.7,305.16,1403.91,328.88Z" transform="translate(-667.06 -70)"/><path class="cls-13" d="M1523.32,388.8a148.69,148.69,0,0,0,119.73-60.36,310.06,310.06,0,0,0-165.74,53.08A148.58,148.58,0,0,0,1523.32,388.8Z" transform="translate(-667.06 -70)"/><path class="cls-8" d="M1647,223.79c2-5.46,2.55-11.3,3.12-17.07q.69-6.84,1.36-13.69c.66-6.64.74-14.63-4.75-18.43-3.35-2.31-7.92-2.2-11.72-.73s-7,4.12-10.12,6.73l.17-3.3q-8.35-21.87-16.7-43.73a200.16,200.16,0,0,0-9.61-22.09,148.49,148.49,0,0,0-91.31-19.68A101,101,0,0,0,1472,122.33c-15.79,22.07-21.85,50.45-17.06,77.1,2.35,13.1,6,25.8,7.57,39.22,1.63,14.1,2.89,28.45,7.79,41.89,11.11,30.51,42.35,52.53,74.82,52.72,21.72.13,39.43-18.38,53-35.36a96.73,96.73,0,0,0,20.95-60.4c4.27,3.93,12.19,2.3,17.32-.41S1645,229.25,1647,223.79Z" transform="translate(-667.06 -70)"/><path class="cls-8" d="M1525.72,325.64c2,10.43,4,21,3.51,31.59s-5.88,19.9-11,29.17a18.82,18.82,0,0,0-1.06,2.25c2.06.08,4.12.15,6.2.15A148.21,148.21,0,0,0,1610,361c-6.35-30.79-11.25-61.77-3-92Z" transform="translate(-667.06 -70)"/><path class="cls-14" d="M1527.66,221.77a40.32,40.32,0,0,1-2.34,9.18c-2,5.1-5,10-5.16,15.48a15.46,15.46,0,0,0,9.14,14.23" transform="translate(-667.06 -70)"/><path class="cls-15" d="M1493.54,213.59V230" transform="translate(-667.06 -70)"/><path class="cls-15" d="M1565,208.15l1.25,16.38" transform="translate(-667.06 -70)"/><path class="cls-15" d="M1552.9,180.18a19.47,19.47,0,0,1,28.16,13" transform="translate(-667.06 -70)"/><path class="cls-15" d="M1478.91,197.58A15.7,15.7,0,0,1,1501.1,186" transform="translate(-667.06 -70)"/><path class="cls-16" d="M1564.58,273.58l-45.29,5.2c-.25,9.59,3.85,18.35,10.67,22.57s15.28,3.43,21.82-1.44S1563,283,1564.58,273.58Z" transform="translate(-667.06 -70)"/><path class="cls-12" d="M1639.71,169.32a33.89,33.89,0,0,0,12.06-4.79,149,149,0,0,0-186.36-61.9,111.36,111.36,0,0,0-12.32,17c-11.64,19.69-13.47,43.4-14.43,66.26a89.5,89.5,0,0,0,57.19-56.13c-.25,10.46,9.84,19.49,19.64,23.16s20.54,3.45,31,4,21.45,2.19,29.59,8.76c7,5.65,11.1,14.33,18.15,19.94a28.44,28.44,0,0,0,45.5-16.27Z" transform="translate(-667.06 -70)"/><circle class="cls-12" cx="917.42" cy="726.61" r="98.27"/><circle class="cls-12" cx="246.61" cy="260.71" r="79.47"/><circle class="cls-17" cx="159.84" cy="624.82" r="159.84"/><path class="cls-7" d="M727.58,654.86l-2,70.29c-.14,4.92-.21,10.11,2.34,14.44,5,8.44,20.23,9.1,26.05,1.12-2.27,8.44-3.67,19.19,4.08,24.15,7,4.47,16.74.78,23.24-4.29s12.23-11.66,20.44-13.72c-9.49-40.34-17-81.93-26.5-122.27C759.06,635.44,743.73,644,727.58,654.86Z" transform="translate(-667.06 -70)"/><path class="cls-12" d="M829.54,788.65a246.68,246.68,0,0,0-87.29,41.74,159.81,159.81,0,0,0,212.93-40.21A246.68,246.68,0,0,0,829.54,788.65Z" transform="translate(-667.06 -70)"/><path class="cls-7" d="M931.5,659.87c1.53,3.59,2.91,8.16.25,11-1.68,1.81-4.51,2.15-6.89,1.47a20.1,20.1,0,0,1-6.4-3.67l-34.85-26.07c-4.66-3.49-9.73-7.67-10.26-13.47-1.07-11.89,24.57-25.87,34.51-20.54,6.29,3.37,9.16,17.23,11.79,23.4Z" transform="translate(-667.06 -70)"/><path class="cls-8" d="M868.31,759.93A100.51,100.51,0,0,0,878.8,795c7.3-2.12,19.91-3.22,27.35-1.64s14.38,8.23,13.43,15.72c-1,8-9.69,12.45-17.39,15-32.29,10.75-67.06,12.61-101,9.67-5.07-.43-10.29-1-14.73-3.49s-8-7.28-7.32-12.3,6.63-9.06,11.1-6.64l2.17-1.92A158.9,158.9,0,0,0,776,720.81Z" transform="translate(-667.06 -70)"/><path class="cls-8" d="M757.1,691.41a139.87,139.87,0,0,1,14.45-88.89c6.57-12.28,15.4-23.9,27.68-30.47,16.94-9.06,38.33-7,55.32,2s30.08,24,40.41,40.18c12.55,19.66,21.7,41.81,24.1,65s-2.29,47.49-15.31,66.83c-18.24,27.09-28.76,44.53-61.12,31.5-12.51-5-53.06-28.42-60.57-38.9C769.47,721.08,760.76,712.79,757.1,691.41Z" transform="translate(-667.06 -70)"/><path class="cls-8" d="M788.42,718a33.86,33.86,0,0,1-53.61-29.58c.27-4.31,1.49-8.78,4.55-11.83,3.5-3.48,8.86-4.53,13.75-3.9s9.46,2.73,13.93,4.8C774.88,689.65,780.59,705.74,788.42,718Z" transform="translate(-667.06 -70)"/><path class="cls-7" d="M785.7,643.71a7.61,7.61,0,0,1,8.95,7.26l.85,25c.08,2.41.15,4.87-.89,7.17a9.6,9.6,0,0,1-6.8,5.18,13.91,13.91,0,0,1-11.91-3.46c-2.64-2.58-3.56-5.78-4.41-8.87l-2.57,12.56A7.64,7.64,0,0,1,755.61,692a29.92,29.92,0,0,1-2.19-3l-15.95-25.28a7.62,7.62,0,0,1,5-11.56C756.76,649.45,771.5,646.32,785.7,643.71Z" transform="translate(-667.06 -70)"/><path class="cls-15" d="M865.79,658.48a37.2,37.2,0,0,0,5,32.68c1.78,2.49,3.92,4.86,4.72,7.82s-.4,6.76-3.36,7.55" transform="translate(-667.06 -70)"/><path class="cls-15" d="M811,658.67a17.18,17.18,0,0,1,23.89-9.46" transform="translate(-667.06 -70)"/><path class="cls-15" d="M879.92,645a14.61,14.61,0,0,1,22.18-1.24" transform="translate(-667.06 -70)"/><path class="cls-15" d="M827.86,672.9v12.31" transform="translate(-667.06 -70)"/><path class="cls-15" d="M893.12,665.06l2,11.32" transform="translate(-667.06 -70)"/><path class="cls-18" d="M831.23,731.71A57.17,57.17,0,0,0,879,728.45" transform="translate(-667.06 -70)"/><path class="cls-7" d="M898.94,576.17l30-2.58c2.88-.24,6-.45,8.48,1s3.93,4.39,4.29,7.29c.94,7.63-.14,14.77-6.33,19.89-4.44,3.67-10,5.71-15.41,7.65A1459.3,1459.3,0,0,1,760.33,656.3c-11.39,2.65-22.8,5.17-34.22,7.68-9.11,2-25.6,5.09-21.56-8.31,3.17-10.48,12.81-19.36,23-22.73-2.23-12.21-4.23-23.51-3.36-35.89s5.19-25,14.27-33.43c6.21-5.77,14.16-9.24,22-12.59l38.78-16.72c16.19-7,34.22-14.07,51-8.55,10,3.3,18.19,10.84,24.16,19.52S895,566.4,898.94,576.17Z" transform="translate(-667.06 -70)"/><path class="cls-19" d="M1638.29,538.49l21,24.61a4.55,4.55,0,0,0,7.91-2l6.77-31.63,29.89-12.37a4.55,4.55,0,0,0,.55-8.14l-28-16.21-2.52-32.26a4.55,4.55,0,0,0-7.58-3l-24.07,21.62-31.45-7.57a4.55,4.55,0,0,0-5.23,6.27l13.12,29.57-16.92,27.57a4.55,4.55,0,0,0,4.35,6.91Z" transform="translate(-667.06 -70)"/><path class="cls-20" d="M1029.59,924.53l21-1a3,3,0,0,0,2.13-4.87l-13.59-16.1,5.55-20.32a3,3,0,0,0-4-3.53l-19.51,8-17.61-11.56A3,3,0,0,0,999,877.8l1.54,21L984.14,912a3,3,0,0,0,1.15,5.19l20.45,5,7.45,19.7a3,3,0,0,0,5.3.52Z" transform="translate(-667.06 -70)"/><circle class="cls-20" cx="417.1" cy="94.45" r="19.15"/><circle class="cls-19" cx="235.05" cy="386.29" r="19.15"/><path class="cls-13" d="M1261.06,238.71a47,47,0,0,1-47,47,46.41,46.41,0,0,1-11.94-1.54,45.63,45.63,0,0,1-15.41-7.27,46.91,46.91,0,0,1-16.53-21.34,136.87,136.87,0,0,1,22.21-21.95l-8.64-11a143.45,143.45,0,0,0-16.64,15.24,47,47,0,0,1,69-40.66c-3.53,2.3-6.77,4.81-10,7.3l8.56,11.05c4.31-3.33,8.75-6.8,13.42-9.2A47.13,47.13,0,0,1,1261,235.58C1261,236.61,1261.06,237.65,1261.06,238.71Z" transform="translate(-667.06 -70)"/><circle class="cls-12" cx="735.32" cy="745.76" r="19.15"/><path class="cls-13" d="M1192.41,233.59a136.87,136.87,0,0,0-22.21,21.95,46.79,46.79,0,0,1-3.1-16.83,8.43,8.43,0,0,1,0-.87,143.45,143.45,0,0,1,16.64-15.24Z" transform="translate(-667.06 -70)"/><path class="cls-13" d="M1248.11,206.33c-4.67,2.4-9.11,5.87-13.42,9.2l-8.56-11.05c3.19-2.49,6.43-5,10-7.3A46.4,46.4,0,0,1,1248.11,206.33Z" transform="translate(-667.06 -70)"/><path class="cls-12" d="M1276.86,216.73c-2.52,5.65-6.85,9.9-10.32,13.34l-5.59,5.51c-16.7,16.38-36.16,34.7-58.81,48.57a165.63,165.63,0,0,1-25,12.7,41.16,41.16,0,0,1-15.13,3.3c-6.26,0-11.44-2.1-15.15-6.24-6.8-7.58-6.19-19.15,1.64-31.82a148.12,148.12,0,0,1,18.66-24.25,8.43,8.43,0,0,0,0,.87,46.79,46.79,0,0,0,3.1,16.83,132.82,132.82,0,0,0-9.84,13.9c-3.16,5.09-5.84,12.08-3.13,15.13,2.51,2.8,9.23,1.48,14.68-.7a139.9,139.9,0,0,0,14.82-7c27.43-14.79,50.7-37.75,70-56.77l.33-.33c2.8-2.77,5.65-5.62,7-8.76,1.06-2.32,1-5,0-6.26-3.33-4-12.08-.31-14.68.92-.42.2-.87.42-1.29.65a46.4,46.4,0,0,0-12-9.15,61.85,61.85,0,0,1,7.32-4.14c13.26-6.26,24.72-5.25,31.41,2.77C1279.32,201.21,1280.13,209.4,1276.86,216.73Z" transform="translate(-667.06 -70)"/></svg>