<svg id="Layer_1" data-name="Layer 1" xmlns="http://www.w3.org/2000/svg" viewBox="0 0 1045.32 970.88"><defs><style>.cls-1{fill:#f0f0f0;}.cls-2{fill:#e0e0e0;}.cls-3{fill:#f5cd34;}.cls-4{fill:#a6b1bc;}.cls-5{fill:#64bf9e;}.cls-6{fill:#80ddbc;}.cls-7{fill:#d8b42e;}.cls-8{fill:#929ca5;}.cls-9{fill:#72d9b4;}.cls-10{fill:#ffdbef;}.cls-11,.cls-12{fill:none;stroke-linecap:round;stroke-miterlimit:10;stroke-width:2.86px;}.cls-11{stroke:#774699;}.cls-12{stroke:#d33939;}.cls-13{fill:#fef9f8;}</style></defs><path class="cls-1" d="M1652,292.15c-90.29-116.27-250-60.21-373.32-102.07C1126.84,138.53,1046,108,907.39,222.75,716,381.23,604.15,748.87,817.55,935.56c165.07,144.41,520.54,133.13,703.51,25.34C1757.21,821.79,1820.7,509.43,1652,292.15Z" transform="translate(-701.68 -72)"/><path class="cls-2" d="M711,752.23c15,69.19,48.9,132.87,106.57,183.33,165.07,144.41,520.54,133.13,703.51,25.34,86.25-50.8,149.43-124.72,186.71-208.67Z" transform="translate(-701.68 -72)"/><rect class="cls-3" x="178.62" y="259.41" width="640.11" height="613.56" rx="12.31"/><path class="cls-4" d="M1653.21,343.69l-37.1-133.84a1.51,1.51,0,0,0-2.91,0l-38.31,133.51Z" transform="translate(-701.68 -72)"/><rect class="cls-5" x="1573.69" y="343.69" width="78.32" height="524.54" transform="translate(2521.25 1147.25) rotate(-179.74)"/><rect class="cls-6" x="1630.77" y="343.82" width="21.25" height="524.54" transform="translate(2578.33 1147.64) rotate(-179.74)"/><rect class="cls-6" x="1573.69" y="343.56" width="21.25" height="524.54" transform="translate(2464.18 1146.85) rotate(-179.74)"/><path class="cls-7" d="M1584,868.23H1639a11.63,11.63,0,0,1,11.63,11.63v65.09a0,0,0,0,1,0,0h-78.32a0,0,0,0,1,0,0V879.86A11.63,11.63,0,0,1,1584,868.23Z" transform="translate(2517.16 1748.48) rotate(-179.74)"/><rect class="cls-8" x="1572.59" y="828.04" width="78.32" height="40.19" transform="matrix(-1, 0, 0, -1, 2517.95, 1631.58)"/><path class="cls-7" d="M1613.2,209.83l-15.44,53.79c10.42-.07,22.76-.12,33.24-.07l-14.89-53.7A1.51,1.51,0,0,0,1613.2,209.83Z" transform="translate(-701.68 -72)"/><rect class="cls-7" x="295.12" y="467.01" width="407.12" height="59.04" rx="10.51"/><rect class="cls-1" x="431.88" y="589.84" width="332.96" height="48.28" rx="8.59"/><rect class="cls-7" x="233.05" y="589.84" width="145.19" height="48.28" rx="8.59"/><rect class="cls-1" x="431.88" y="701.91" width="252.48" height="48.28" rx="8.59"/><rect class="cls-7" x="233.05" y="701.91" width="145.19" height="48.28" rx="8.59"/><circle class="cls-9" cx="498.68" cy="203.56" r="203.56"/><path class="cls-5" d="M1294.62,385.48c-57.94,12.64-136.91,49.23-184.11,72.75a203.59,203.59,0,0,0,269.81-87.54C1363.8,372.3,1336.94,376.24,1294.62,385.48Z" transform="translate(-701.68 -72)"/><path class="cls-7" d="M1402.67,253.22C1391.58,151.68,1305.85,72.6,1201.49,72a165.27,165.27,0,0,0-33.12,20.64c-8.06,6.49-18.6,17.59-21.07,27.64-21.69,8.23-36.34,32.05-33.89,55.12s21.76,43.29,44.69,46.79l140,90c6.9,11.87,2.35,28.37,9.26,40.24,15.23-3.2,47-29.69,43.1-44.75C1373,293.56,1392.57,279.13,1402.67,253.22Z" transform="translate(-701.68 -72)"/><path class="cls-10" d="M1362.05,399.17c-14.4-2.15-30.63-1.57-39,1.49-9.48-26.73-15.85-59.75-19.18-86.16,3.48-2.47,6.25-6.15,8.61-9.79a119.86,119.86,0,0,0,13.24-27.6c2-6.06,3.4-12.5,2.08-18.72a22.2,22.2,0,0,0-40.26-7.6s-4.15,27.23-11.9,25.42-23.71-66.7-23.71-66.7c-36.28-11.24-68.55-35.53-88.71-67.78l.6-3.48a73.92,73.92,0,0,0-15.49,61l.43,3.13c.07,25.89-13.2,51.53-34.68,66.11a19.63,19.63,0,0,0-7.07,8.35c-5.14,11.93,5.73,19,15,23.61a173.17,173.17,0,0,0,24.5,76.3,15.46,15.46,0,0,0,13.45,7.49c12.19-.14,24.64.37,36.66-.17,2.08,16.12,4.61,32,6.94,48L1189,444.43a24,24,0,0,0-3.25,34.11c4.84.34,9.7.58,14.62.58A203.19,203.19,0,0,0,1362.05,399.17Z" transform="translate(-701.68 -72)"/><path class="cls-11" d="M1175.37,222a49.87,49.87,0,0,1,37.7,6.17" transform="translate(-701.68 -72)"/><path class="cls-11" d="M1186.41,240.82v18.24" transform="translate(-701.68 -72)"/><path class="cls-12" d="M1141.86,332.84a65.59,65.59,0,0,0,34.49-3.7" transform="translate(-701.68 -72)"/><circle class="cls-9" cx="196.58" cy="797.87" r="117.65"/><rect class="cls-13" x="171.47" y="725.23" width="50.23" height="145.29" rx="8.94"/><rect class="cls-13" x="873.14" y="797.23" width="50.23" height="145.29" rx="8.94" transform="translate(-673.29 1696.13) rotate(-90)"/></svg>