<svg id="Layer_1" data-name="Layer 1" xmlns="http://www.w3.org/2000/svg" viewBox="0 0 1125.5 985"><defs><style>.cls-1{fill:#f0f0f0;}.cls-2{fill:#e0e0e0;}.cls-3{fill:#f5cd34;}.cls-4{fill:#b3b3b3;}.cls-5{fill:#c9c9c9;}.cls-6{fill:#fff;}.cls-7{fill:#80ddbc;}.cls-8{fill:#fef9f8;}.cls-9{fill:#dcdcf2;}.cls-10{fill:#ffd31a;}.cls-11{fill:#72d9b4;}.cls-12{fill:#f6d248;}.cls-13{fill:#d8b42e;}</style></defs><path class="cls-1" d="M1620.61,859.73c.46-.5.91-1,1.36-1.52q11.44-13,21.79-26.64c.31-.41.63-.82.94-1.24q10.46-13.87,19.77-28.39c.18-.28.36-.56.53-.84q9.43-14.73,17.68-30.05l.21-.39q8.34-15.51,15.46-31.54h0c66.42-149.55,52.59-330.16-57.18-471.52-92.54-119.17-256.26-61.71-382.61-104.61C1103,110.15,1020.13,78.83,878.05,196.46,715.06,331.4,608.41,614.3,702.4,815.89l.46,1c1.7,3.61,3.45,7.2,5.28,10.75.41.8.84,1.58,1.25,2.38,1.61,3.06,3.25,6.12,5,9.14.59,1,1.2,2.1,1.81,3.14,1.59,2.75,3.2,5.47,4.87,8.18.74,1.2,1.5,2.4,2.26,3.59q2.4,3.78,4.91,7.51,1.31,1.94,2.64,3.87c1.63,2.36,3.31,4.69,5,7,1,1.34,2,2.68,3,4,1.69,2.24,3.44,4.46,5.2,6.67,1.08,1.35,2.15,2.71,3.26,4,1.78,2.17,3.62,4.3,5.46,6.43,1.15,1.33,2.29,2.67,3.47,4,1.92,2.15,3.9,4.26,5.89,6.37,1.18,1.25,2.32,2.51,3.52,3.75,2.2,2.26,4.48,4.48,6.76,6.7,1.06,1,2.08,2.09,3.16,3.11q5.09,4.83,10.42,9.51a329.32,329.32,0,0,0,33.92,25.9,388.94,388.94,0,0,0,37.94,22.24A467.69,467.69,0,0,0,910.1,998a565.7,565.7,0,0,0,56.65,17.41q5.85,1.49,11.76,2.85,11.82,2.76,23.88,5.09a737.83,737.83,0,0,0,74,10.37q12.54,1.14,25.19,1.88c25.28,1.49,50.8,1.81,76.24,1,21.2-.66,42.35-2.09,63.27-4.25a832.83,832.83,0,0,0,98-16,703.33,703.33,0,0,0,79.41-22.79q5.4-1.9,10.69-3.9,10.59-4,20.78-8.26A473.87,473.87,0,0,0,1507,953c4.92-2.9,9.74-5.9,14.52-8.94q1.86-1.18,3.7-2.39,6.43-4.18,12.69-8.52c.47-.33.95-.64,1.41-1,4.6-3.23,9.1-6.54,13.55-9.9,1.05-.79,2.08-1.59,3.13-2.39q5.82-4.49,11.47-9.1c.6-.5,1.21-1,1.81-1.47q6.48-5.37,12.71-10.92l2.29-2.07q5.52-5,10.86-10.1c.56-.54,1.14-1.07,1.7-1.62q6.09-5.91,12-12l1.25-1.33Q1615.43,865.57,1620.61,859.73Z" transform="translate(-639.35 -52)"/><path class="cls-2" d="M688,779.81a348.91,348.91,0,0,0,14.4,36.08l.46,1c1.7,3.61,3.45,7.2,5.28,10.75.41.8.84,1.58,1.25,2.38,1.61,3.06,3.25,6.12,5,9.14.59,1,1.2,2.1,1.81,3.14,1.59,2.75,3.2,5.47,4.87,8.18.74,1.2,1.5,2.4,2.26,3.59q2.4,3.78,4.91,7.51,1.31,1.94,2.64,3.87c1.63,2.36,3.31,4.69,5,7,1,1.34,2,2.68,3,4,1.69,2.24,3.44,4.46,5.2,6.67,1.08,1.35,2.15,2.71,3.26,4,1.78,2.17,3.62,4.3,5.46,6.43,1.15,1.33,2.29,2.67,3.47,4,1.92,2.15,3.9,4.26,5.89,6.37,1.18,1.25,2.32,2.51,3.52,3.75,2.2,2.26,4.48,4.48,6.76,6.7,1.06,1,2.08,2.09,3.16,3.11q5.09,4.83,10.42,9.51a329.32,329.32,0,0,0,33.92,25.9,388.94,388.94,0,0,0,37.94,22.24A467.69,467.69,0,0,0,910.1,998a565.7,565.7,0,0,0,56.65,17.41q5.85,1.49,11.76,2.85,11.82,2.76,23.88,5.09a737.83,737.83,0,0,0,74,10.37q12.54,1.14,25.19,1.88c25.28,1.49,50.8,1.81,76.24,1,21.2-.66,42.35-2.09,63.27-4.25a832.83,832.83,0,0,0,98-16,703.33,703.33,0,0,0,79.41-22.79q5.4-1.9,10.69-3.9,10.59-4,20.78-8.26A473.87,473.87,0,0,0,1507,953c4.92-2.9,9.74-5.9,14.52-8.94q1.86-1.18,3.7-2.39,6.43-4.18,12.69-8.52c.47-.33.95-.64,1.41-1,4.6-3.23,9.1-6.54,13.55-9.9,1.05-.79,2.08-1.59,3.13-2.39q5.82-4.49,11.47-9.1c.6-.5,1.21-1,1.81-1.47q6.48-5.37,12.71-10.92l2.29-2.07q5.52-5,10.86-10.1c.56-.54,1.14-1.07,1.7-1.62q6.09-5.91,12-12l1.25-1.33q5.4-5.67,10.58-11.51c.46-.5.91-1,1.36-1.52q11.44-13,21.79-26.64c.31-.41.63-.82.94-1.24q10.46-13.87,19.77-28.39c.18-.28.36-.56.53-.84,4.47-7,8.67-14.1,12.74-21.29Z" transform="translate(-639.35 -52)"/><path class="cls-3" d="M854.32,283.51h19.52c.55-122.89,100.32-222.35,223.34-222.35A222.8,222.8,0,0,1,1265.7,138a166.41,166.41,0,0,1,73.16-16.85c90.68,0,164.43,72.27,166.94,162.34h19.61A112.19,112.19,0,0,1,1637.6,395.7h0a112.19,112.19,0,0,1-112.19,112.2H854.32a112.2,112.2,0,0,1-112.2-112.2h0A112.19,112.19,0,0,1,854.32,283.51Z" transform="translate(-639.35 -52)"/><path class="cls-4" d="M1448.7,896.89c14.68-82.61,72.8-156.22,149.75-189.66,27.6-12,57.18-19.05,84.48-31.71s53.22-32.46,63.71-60.66c25.36,45.41,22.65,102.94,1.58,150.5s-58.55,86.17-100,117.62A534,534,0,0,1,1397.07,986.4Z" transform="translate(-639.35 -52)"/><path class="cls-5" d="M1349.48,1013.89c24.51-82.21,90.38-145.58,160.71-194.71,37.4-26.13,80.64-55.19,86.68-100.41,27.81,56.31,21.68,127.84-15.31,178.61-43.77,60.07-119.87,85.3-191,107.06Z" transform="translate(-639.35 -52)"/><path class="cls-6" d="M674.47,494.32h197.9a56.94,56.94,0,0,1,56.94,56.94V711.79a56.93,56.93,0,0,1-56.93,56.93H674.47a56.94,56.94,0,0,1-56.94-56.94V551.26A56.94,56.94,0,0,1,674.47,494.32Z"/><rect class="cls-7" x="645.56" y="522.35" width="255.71" height="218.34" rx="28.9"/><path class="cls-8" d="M1525.38,682.41l-59.69-34.47a2.34,2.34,0,0,0-3.51,2V718.9a2.34,2.34,0,0,0,3.51,2l59.69-34.46A2.34,2.34,0,0,0,1525.38,682.41Z" transform="translate(-639.35 -52)"/><path class="cls-6" d="M241.38,331H483.5a69.65,69.65,0,0,1,69.65,69.65V597.07a69.66,69.66,0,0,1-69.66,69.66H241.38a69.65,69.65,0,0,1-69.65-69.65V400.68A69.66,69.66,0,0,1,241.38,331Z"/><rect class="cls-9" x="206.02" y="365.32" width="312.84" height="267.12" rx="35.36"/><path class="cls-10" d="M938.05,509.16,845.37,630.09v19a35.36,35.36,0,0,0,35.36,35.36h181.38Z" transform="translate(-639.35 -52)"/><path class="cls-11" d="M982.43,684.43h140.42a35.23,35.23,0,0,0,24.81-10.18L1068,575.84Z" transform="translate(-639.35 -52)"/><circle class="cls-11" cx="407.53" cy="446.61" r="29.13"/><rect class="cls-11" x="344.78" y="695.15" width="35.33" height="197.01" rx="6.13"/><rect class="cls-11" x="265.38" y="695.15" width="35.33" height="142.02" rx="6.13"/><rect class="cls-11" x="424.18" y="695.15" width="35.33" height="87.04" rx="6.13"/><rect class="cls-11" x="755.76" y="799.99" width="35.33" height="114.53" rx="6.13"/><rect class="cls-11" x="676.36" y="799.99" width="35.33" height="87.04" rx="6.13"/><rect class="cls-11" x="835.16" y="799.99" width="35.33" height="59.55" rx="6.13"/><path class="cls-12" d="M1396.33,115.5h5.57A63.78,63.78,0,0,1,1513.83,74a47.71,47.71,0,0,1,68.57,41.55h5.6a32,32,0,0,1,32,32.05h0a32,32,0,0,1-32,32H1396.33a32,32,0,0,1-32-32h0A32,32,0,0,1,1396.33,115.5Z" transform="translate(-639.35 -52)"/><path class="cls-13" d="M677.57,273.34h6.65a76.07,76.07,0,0,1,133.49-49.57,56.91,56.91,0,0,1,81.8,49.57h6.68a38.22,38.22,0,0,1,38.22,38.22h0a38.22,38.22,0,0,1-38.22,38.22H677.57a38.22,38.22,0,0,1-38.22-38.22h0A38.22,38.22,0,0,1,677.57,273.34Z" transform="translate(-639.35 -52)"/><path class="cls-8" d="M1301.6,686.46l56.79,32.79a2.34,2.34,0,0,0,3.51-2V651.65a2.34,2.34,0,0,0-3.51-2l-56.79,32.79A2.34,2.34,0,0,0,1301.6,686.46Z" transform="translate(-639.35 -52)"/></svg>